<svg xmlns="http://www.w3.org/2000/svg" width="0.93em" height="1em" preserveAspectRatio="xMidYMid meet" viewBox="0 0 256 278"><path d="M90.317 59.645c-36.264-6.605-64.936.308-76.364 20.1-8.527 14.77-6.1 34.353 5.912 55.285a3.719 3.719 0 1 0 6.452-3.699c-10.81-18.856-12.915-35.757-5.923-47.867 9.493-16.442 35.068-22.608 68.6-16.503a3.719 3.719 0 1 0 1.333-7.317zm53.63-33.684c-2.96 5.723-8.932 9.635-15.82 9.635-9.83 0-17.798-7.97-17.798-17.798S118.3 0 128.128 0a17.8 17.8 0 0 1 17.798 17.798 19.5 19.5 0 0 1-.016.767c29.46 15.237 49.933 67.197 49.933 127.226 0 24.7-3.452 48.382-9.88 68.92a3.719 3.719 0 1 1-7.097-2.221c6.196-19.802 9.54-42.747 9.54-66.7 0-56.524-18.79-105.163-44.458-119.83zM16.47 193.32a18.05 18.05 0 0 1 1.33-.05c9.83 0 17.798 7.97 17.798 17.8a17.8 17.8 0 0 1-17.798 17.797A17.8 17.8 0 0 1 .001 211.068c0-6.692 3.693-12.52 9.15-15.56-2.68-33.265 32.283-77.855 85.12-108.36 21.946-12.67 44.798-21.665 66.267-26.265a3.719 3.719 0 0 1 1.558 7.273C141.407 72.59 119.28 81.297 98 93.59c-49.76 28.728-82.66 70.134-81.52 99.73zm206.26 26.546a17.716 17.716 0 0 1-2.324-8.797c0-9.83 7.97-17.798 17.798-17.798a17.8 17.8 0 0 1 17.798 17.798 17.8 17.8 0 0 1-17.798 17.797 17.717 17.717 0 0 1-10.38-3.338c-28.392 16.703-82.625 8.184-133.66-21.282-21.726-12.543-40.776-27.657-55.44-43.77a3.719 3.719 0 0 1 5.5-5.006C58.358 171 76.805 185.636 97.88 197.804c48.165 27.808 98.886 36.084 124.847 22.06zm-1.166-63.914a3.719 3.719 0 0 1-5.676-4.805c21.946-25.926 29.34-51.086 19.867-67.492-6.876-11.9-22.16-18.52-43.362-18.796a3.719 3.719 0 1 1 .097-7.437c23.575.307 41.315 7.98 49.706 22.514 11.404 19.752 3.113 47.965-20.632 76.016zm-149 65.54a3.719 3.719 0 0 1 7.001-2.507c11.476 32.045 29.59 51.082 48.563 51.082 13.645 0 26.9-9.774 37.7-27.74a3.719 3.719 0 0 1 6.375 3.832c-12.018 20-27.428 31.345-44.085 31.345-22.84 0-43.15-21.344-55.564-56.01zm176-10.423c0-5.722-4.64-10.36-10.36-10.36s-10.362 4.64-10.362 10.36 4.64 10.36 10.36 10.36a10.36 10.36 0 0 0 10.36-10.36zm-230.765 10.36a10.36 10.36 0 0 0 10.36-10.36c0-5.722-4.638-10.36-10.36-10.36s-10.36 4.64-10.36 10.36a10.36 10.36 0 0 0 10.36 10.361zm110.33-193.27a10.36 10.36 0 1 0 0-20.72 10.36 10.36 0 1 0 0 20.72zm2.718 130.22a12.88 12.88 0 0 1-15.305-9.868c-1.5-6.952 2.916-13.8 9.868-15.305a12.88 12.88 0 0 1 15.305 9.867 12.88 12.88 0 0 1-9.868 15.305z" fill="#47848f"/></svg>