<svg xmlns="http://www.w3.org/2000/svg" width="1em" height="1em" preserveAspectRatio="xMidYMid meet" viewBox="0 0 24 24"><path d="M20.154 8.514c.85-2.04.906-3.738-.113-4.757-1.133-1.132-3.852-.792-6.737.565h-.34c-2.037 0-4.02.738-5.492 2.04-1.244 1.133-2.15 2.605-2.547 4.246.283-.337 1.87-2.207 3.68-3.226.058 0 .5-.283.5-.283-.057 0-.905.85-1.074 1.02-3.965 4.076-6.285 10.248-4.473 12.06 1.188 1.19 3.34.906 5.83-.452 1.075.5 2.265.735 3.565.735 1.7 0 3.285-.453 4.643-1.36 1.416-.906 2.436-2.32 3.06-3.962H16.25c-.566 1.075-1.87 1.812-3.227 1.812-1.926 0-3.512-1.586-3.568-3.397v-.17h11.55v-.17c0-.283.057-.623.057-.848-.001-1.362-.34-2.664-.908-3.853zM4.81 19.838c-.906-.906-.62-2.662.453-4.756.5 1.416 1.36 2.662 2.435 3.567a8.21 8.21 0 0 0 1.133.792c-1.814.963-3.285 1.133-4.02.397zm11.606-8.606H9.5v-.057C9.623 9.42 11.264 7.9 13.19 7.9c1.812 0 3.284 1.416 3.397 3.285v.057h-.17zm3.454-3.17a6.948 6.948 0 0 0-1.303-1.585 8.445 8.445 0 0 0-2.718-1.699c1.813-.85 3.34-.96 4.134-.17.623.736.567 1.98-.113 3.453 0 .057 0 .057 0 0 0 .057 0 .057 0 0z" fill="#626262"/></svg>