<svg xmlns="http://www.w3.org/2000/svg" width="1em" height="1em" preserveAspectRatio="xMidYMid meet" viewBox="0 0 256 256" fill="#dd3735"><path d="M255.902 121.097l-.432-9.938c-.173-3.37-.26-6.74-.605-10.1-.605-4.582-1.2-9.248-2.247-13.742-.778-3.716-2.074-7.26-3.37-10.802-1.642-4.15-3.284-8.383-5.358-12.358-3.37-6.395-7.778-12.1-11.84-18.062-2.68-3.803-6.135-6.914-8.728-10.802-1.47-2.247-3.63-4.15-5.8-5.877-3.457-2.765-7.087-5.272-10.716-7.7-2.766-1.903-5.53-3.717-8.47-5.36-2.333-1.297-4.84-2.334-7.26-3.457-2.764-1.297-5.443-2.852-8.554-3.457-.778-.173-1.47-.432-2.247-.7-1.988-.693-3.9-1.47-5.877-2.075-3.024-.95-5.962-2.075-9.074-2.852-3.024-.778-6.135-1.297-9.246-1.73-3.457-.518-7-.7-10.457-1.037-2.247-.26-4.494-.518-6.655-.605-3.283-.172-6.654-.172-9.938-.26-1.642-.086-3.37-.26-5.012-.173-2.506.087-5.012.346-7.52.692-2.418.26-4.838.69-7.172 1.037-2.85.345-5.703.518-8.555.864-2.68.346-5.444.864-8.123 1.296-.95.173-1.902.52-2.852.69-2.074.433-4.235.606-6.3 1.297-3.715 1.123-7.43 2.42-11.06 3.802-3.37 1.383-6.654 2.852-9.85 4.58-3.284 1.814-6.395 3.975-9.507 6.05-2.938 1.986-5.876 4.06-8.728 6.308-2.765 2.16-5.358 4.58-7.864 7-1.383 1.382-2.506 3.024-3.803 4.58-2.16 2.506-4.32 4.926-6.395 7.518-1.728 2.16-3.285 4.408-4.925 6.655-2.94 3.975-5.445 8.2-7.778 12.444-.95 1.728-1.815 3.457-2.68 5.185-1.296 2.593-2.678 5.1-3.888 7.778-.864 1.815-1.556 3.802-2.074 5.8a698.06 698.06 0 0 0-3.543 12.79C.36 100.183.1 104.16.014 108.048c-.087 3.456.26 6.827.605 10.284.086.864-.432 1.9.605 2.592.086 0 0 .346-.087.432-.26.52 0 1.037.52 1.2 0 0 .086.087.086.173H1.3c-.26.778.605 1.383.26 2.247-.086.173.26.518.432.778 0 .26-.086.605 0 .864.087.778.433 1.555.433 2.42 0 .605.518 1.296.7 1.9.087.26 0 .69-.172.864-.518.605-.432 1.124.346 1.47.173.086.432.43.432.604 0 .52-.173 1.037-.26 1.556.173.173.26.345.173.518 0 .26-.26.52-.172.692.7 1.382.95 2.938 1.037 4.493 0 .346.173.692.345 1.124.087 0 .346 0 .52.086l-.52 1.556c.433-.26.78-.346 1.2-.52.26 1.124.52 2.16.865 3.11.087.173.26.346.52.52-.087.172-.087.517-.26.604.346 1.555.52 3.025 1.124 4.494.087 0 .173-.087.26-.087-.26-1.555-.432-3.197-.69-4.753v-.518s.173-.087.26-.087c.087.346.26.778.26 1.037.7 0 1.728.432 2.42.432.087-.26.173-.605.26-.777-.52-.52-.95-1.297-1.47-1.815.173.69 0 .95 0 1.2-.345-.173-.777-.346-1.2-.52.346-.432.692-.864 1.2-1.383 0-.777-.432-1.47-1.642-1.382.52-.173 1.038-.432 1.642-.605.087.26.173.518.26.69.7-1.2-.346-2.16-.346-3.37.086-1.47-.778-2.938-1.037-4.494-.432-2.42-.346-6.05-.605-8.47 0-.173-.26-.346-.432-.52-.087.087-.52 1.2-.605 1.297l.7 6.222c-.085 0-.172 0-.172.086l-1.123-5.8c-.086.605-.173.864-.173 1.2-.26-.086-.345-.173-.778-.346.346.778.692 1.297.95 1.902-.604-.26-1.295-.173-1.295-.173v2.42c-.864-.865-1.124-1.556-1.556-2.16-.173-.692-.26-1.384-.432-2.075l.26-.087c-.086-.345-.26-.605-.26-.864a67.673 67.673 0 0 1-.258-2.074c.086-.086.432-.173.605-.345l-.692-1.037c.692.086 1.124.172 1.556.172 0-.172.086-.26 0-.345-.864-.778-.26-1.47.086-2.16.173-.347.778-.433.95-.78.692-1.296 1.816-2.333 1.816-3.975 0-.778.26-1.642.345-2.42.173-1.47.346-2.938.433-4.407.172-1.9 0-3.803.432-5.617.7-3.025 1.555-6.05 2.506-9.074.7-2.16 1.47-4.235 2.333-6.395 1.297-3.37 2.506-6.74 4.148-9.94 2.334-4.666 5.013-9.16 7.605-13.74 1.642-2.852 3.37-5.53 5.185-8.297 1.73-2.68 3.457-5.444 5.445-7.95 2.765-3.543 5.8-6.827 9.16-9.766 3.457-3.1 6.74-6.308 10.457-9.16 4.84-3.716 9.938-7 15.383-9.852 4.407-2.333 8.987-4.148 13.568-5.877 2.938-1.123 6.135-1.64 9.16-2.592 3.457-1.124 6.914-1.642 10.543-1.73 2.334-.086 4.58-.345 6.914-.604l6.395-.605a3.809 3.809 0 0 0-.432.691l-2.938 4.148-2.42 3.457c-1.383 1.815-2.852 3.63-4.148 5.53-1.988 2.852-3.803 5.8-5.877 8.642-2.074 2.765-4.32 5.358-6.48 8.037L86.347 51.53l-7.864 10.457c-2.247 3.11-4.235 6.395-6.395 9.593L62.495 85.75a817.832 817.832 0 0 1-7.605 10.803c-.173.26-.432.346-.69.518-.173.173-.52.346-.52.52-.17.604-.17 1.2-.43 1.727-.69 1.297-1.382 2.593-2.16 3.803-.432.69-1.037 1.296-1.556 1.987-.173-.086-.26-.172-.432-.172.346-.865 1.815-1.383 1.124-2.68-.432.69-.865 1.296-1.297 1.987L47.9 106.32c.346.26.95.432.346.95-.26.432-.52.95-.778 1.383.087 0 .087.086.173.086.26-.346.52-.605.778-.95.086 0 .173.086.26.086-.26.864-.778 1.642-1.2 2.42-.346.69-1.2 1.2-1.815 1.728.087.086.692.346.778.432.26-.346.346-.173.605-.518.173.26.432-.173.52.086.26-.346.518-.605.605-.864.345-.864.864-1.556 1.728-1.9.346-.174.605-.434.864-.693 2.593-2.68 5.272-5.27 7.605-8.123 3.63-4.408 6.914-8.988 10.37-13.482 1.47-1.9 3.198-3.802 4.753-5.617.173.087.346.087.433.173-.173 1.815-.346 3.716-.433 5.53l-.69 9.68c-.086 1.295 0 2.59-.086 3.888 0 .345-.26.604-.26.95 0 .864.26 1.815.26 2.68l-.865 9.505c-.086.692.26 1.383.433 1.988-.087-.086-.173-.173-.433-.346 0 5.013.95 9.94.173 14.865.346-.087.52-.173.52-.346.086-.605.26-1.2.26-1.815.087-.518 0-1.037 0-1.642v-.864c.087-1.556.432-3.198.26-4.753-.172-1.73-.172-3.37.173-5.013.173-.7-.086-1.555.346-2.42v1.296c-.087 4.926.086 9.852-.605 14.778-.086.432.26 1.2-.69 1.123-.087 0-.173.432-.346.692-.432.864.518 1.987-.346 2.85-.173.173.173.95.26 1.47 0 .172.087.345 0 .432-.345.605-.345.605.173.69.087 1.9.26 3.63.346 5.444h.26c1.124-3.284.432-6.654 1.037-10.024.087 1.382.173 2.765.087 4.234 0 2.247-.087 4.408-.173 6.655 0 .432-.087.864-.173 1.296-.26 1.2-.346 2.42-.778 3.543-.345.864-.173 2.16-.173 3.198v3.283c0 .087.26.346.26.692.086.778-.346 1.556-.087 2.42.087.173-.086.432-.173.605-.086.26-.172.518-.086.777l.26 1.297c0 .086.087.173.173.345.087-.345.087-.605.087-.7 1.47.172.7 1.468 1.382 2.16-.345.172-.605.26-.605.345.087.346.26.605.26.95 0 .777-.087 1.47-.173 2.247 0 1.987-.087 3.975-.087 5.876 0 .26.087.52.087.778 0 .173-.087.346-.087.605v1.815h.346c-.173.26-.346.518-.605.777-.086 0-.346 0-.346-.086v-10.89h-1.296c-.173 5.185.26 9.852-.69 14.69-1.037.087-1.383.26-2.506.26l-8.037.086-9.507.087c-1.555 0-3.197.172-4.753.172-2.074 0-4.234-.26-6.308-.26-3.198 0-6.3.26-9.506.346l-7 .173c-1.556.086-3.112.173-4.667.345-.69.087-1.296.346-2.16.605-.26 0-.864-.086-1.382 0-.864.173-1.642.692-2.506.864-1.297.26-1.642.605-1.47 1.902v.864a2.588 2.588 0 0 0-.605-.432c-.086 0-.172.086-.172.086.086.26.26.432.345.692.346-.173.778-.605 1.124-.605h1.2c-.173 0-.26.518-.52.95a66.78 66.78 0 0 0 1.557-.605c.086.26.086.605.086.692 1.2-.087 2.333-.432 3.37-.173 3.37.864 6.828 1.2 10.284 1.555 2.247.173 4.408.26 6.655.346 3.197.173 6.395.346 9.592.346 2.68 0 5.272-.26 7.95-.26 3.717 0 7.433.172 11.15.26.778 0 1.642-.088 2.506-.088h6.31l16.852-.432 9.68-.345 9.85-.26 11.322-.173c2.852 0 5.618-.086 8.47-.172 3.198-.087 6.482-.346 9.68-.52 1.73-.086 3.457-.26 5.186-.432 2.074-.173 4.234-.432 6.308-.52l9.42-.432c3.89-.26 7.778-.605 11.753-.7 3.63-.174 7.346-.087 10.975-.174l9.68-.345 5.445-.26s3.63-.086 5.444-.26c3.1-.173 6.222-.52 9.333-.605 1.988-.086 3.976 0 5.963-.086l9.68-.26c1.2 0 2.507.173 4.062.26-.69.605-1.123.95-1.642 1.382.346.087.7.26 1.037.432 0 .087-.086.173-.086.346-.432 0-.864.087-1.297.087-.172.432-.345.604-.518 1.47h1.555c-.604 0-1.123.776-1.728 1.295.087.086.173.086.26.173-.95-.346-1.555-.173-1.9.778.26.086.432.086.7.086-.085.26-.17.52-.258.864-.086.173-.173.346-.173.605l-.26-.26c0-.173 0-.346-.085-.52-.52.52-1.297.865-.865 1.988-.345.173-.777.346-1.2.605.087.173.26.346.346.605-.777.086-1.555.26-1.382 1.2.345.086.7.26.95.345-.432.173-.864.432-1.296.605-.087.173-.173.605-.346.692-1.2.26-.518.69-.173 1.123-.26.173-.518.346-.777.432.26.087.432.173.605.346a5.01 5.01 0 0 1-.605.346c.172.086.432.26.518.26-.346.258-.778.604-1.296 1.036 0 .173 0 .26.086.432-.345.346-.69.69-1.037 1.2s-.518 1.2-.95 1.728c-1.815 1.988-3.112 4.32-5.445 5.877-.864.605-1.642 1.382-2.42 2.16-1.555 1.47-2.938 3.11-4.58 4.494-2.16 1.815-4.407 3.457-6.74 5.1l-8.555 5.875c-1.556 1.037-3.284 1.815-4.926 2.766l-4.84 2.765c-1.037.692-1.987 1.642-3.11 2.16-2.852 1.2-5.876 2.247-8.814 3.37-.26.086-.432.173-.692.26-2.16.95-4.234 1.987-6.395 2.765-1.988.69-4.06 1.2-6.136 1.642-.69.173-1.47 0-2.246.086-1.47.26-2.94.605-4.408.778-3.802.52-7.605.864-11.407 1.383-2.247.26-4.408.69-6.655.95-1.555.087-3.197-.086-4.753-.086-1.123 0-2.333.26-3.457.086-1.814-.26-3.63-.7-5.444-1.037-.432-.086-1.037-.26-1.383-.086-.69.345-1.296-.173-1.987 0-.432.086-.864-.26-1.297-.26-.345-.087-.777.086-1.2 0-.95-.26-1.814-.605-2.85-.52s-2.074-.432-3.198-.7l-4.58-1.038c-.605-.173-1.123-.432-1.728-.778-.173.086-.433.26-.778.26-1.47-.26-2.938-.346-4.32-.865-1.2-.432-2.333-1.037-3.63-.864-.345.086-.605-.087-.95-.087-.26-.345-.52-1.037-.778-1.037-1.73.087-2.766-1.382-4.235-1.814-.778-.26-1.382-1.124-2.16-1.383-1.9-.778-3.457-2.42-5.617-2.68-.692-.087-1.383-.432-2.16-.692.26.346.432.605.7.865l-.172.172-7-4.06c-.345-.088-.604-.433-.864-.606l-2.333-1.556c-.26-.173-.778-.432-.778-.346-.518.606-1.037.087-1.382-.086-2.334-1.642-5.013-2.68-7.26-4.494-.95-.777-2.074-1.296-2.765-2.247-1.2-1.47-2.68-2.506-4.32-3.37-1.296-.7-2.506-1.47-3.716-2.247-.605-.432-1.2-.95-1.2-1.9 0-.606-.26-1.2-1.037-.865-.346-.52-.69-1.124-1.123-1.297-1.037-.432-1.73-1.21-2.507-1.9s-1.382-1.643-2.333-1.988c-1.728-.692-2.765-2.16-3.802-3.37-2.42-2.853-4.58-5.964-6.828-8.99-.172-.26-.518-.432-.777-.7l-.087.086 1.297 2.506c-.087.086-.26.173-.346.26-.52-.606-1.124-1.2-1.642-1.816-.087.087-.173.173-.26.173l6.223 9.852c.518.778.95 1.555 1.47 2.333a1.17 1.17 0 0 1-.346.26c-.95-.173-1.814-.865-2.247-1.643-.777-1.382-1.642-2.246-3.37-2.074-.173-.605-.346-1.296-.432-1.9-.346 0-.605 0-1.2-.087l3.37 5.444c-.432-.26-.69-.432-.864-.518 1.556 1.642 2.68 3.716 4.667 4.753.432 1.987 2.68 2.938 3.197 4.84l-1.2-.26c-.69-.864-1.47-1.728-2.246-2.68.172.605.432 1.123.777 1.556 1.037 1.296 1.988 2.592 3.198 3.716.432.432 1.037.605 1.037 1.382.173-.173.346-.26.7-.432-.172.346-.258.52-.344.778.345 0 .605.086.864.086.173.52-.087 1.297.95 1.124.087 0 .173.086.26.173.432 1.123 1.123 1.123 2.074.69.173-.086.605 0 .7.173.433.95 1.038 1.037 1.816.346 0 .432.086.864.086 1.2h.346c0-.173-.086-.433-.086-.865.432.346.7.52.864.692.864 1.2 1.642 2.333 2.852 3.283 1.642 1.383 3.1 2.852 4.666 4.15 3.025 2.505 6.395 4.58 9.766 6.48 4.148 2.333 8.123 4.84 12.358 7.086 5.098 2.68 10.543 4.494 16.16 5.79 2.074.432 4.062.864 6.136 1.382 1.815.52 3.63 1.297 5.444 1.73 2.766.604 5.618 1.122 8.383 1.64l1.9.26v.172c.78 0 1.73-.346 1.903-.087.432.692.777.346 1.296.26.605-.173 1.296-.173 1.987-.173 2.42.086 4.753.605 7.173.432.52 0 1.297-.432 1.73.432.173-.087.26-.173.432-.26.345-.087.778-.087 1.123-.173v.173c-.173.086-.345.086-.69.173.432.086.7.172.95.26-.172.172-.26.172-.432.258s-.432.173-.777.432c3.1.605 6.05.692 8.642 0v-.518h.345c0 .172.087.345.173.518 3.975.346 7.864-.173 11.58-1.47.346.432.605 1.037 1.124.173.173-.26.605-.346.95-.432.778-.173 1.73-.52 2.42-.26.778.26 1.037-.433 1.642-.433a16.14 16.14 0 0 0 2.938-.259c.52-.086 1.037-.346 1.642-.518 0-.087 0-.173-.086-.26-.605-.086-1.296-.172-1.815-.172 1.037-.52 1.988-.95 2.938-1.383 0 .086.087.086.087.173-.26.086-.432.432-.778.432h1.2c-.26 0-.605.778-1.037 1.296l8.728-2.16v-.173c-.345.086-.605.086-.864.173-.086-1.815 1.9-1.2 2.593-2.247-.865.26-1.73.518-2.593.69v-.173l8.9-3.89c0 .087.088.087.088.173-.52.346-1.037.605-1.815 1.037.518.087.864.087 1.123.173 0 .26 0 .432-.086.52 1.47-.088 1.123-1.384 1.555-2.162.26.086.605.26.865.173.777-.173 1.47-.432 2.246-.7.865-.26 1.73-.52 2.593-.866 1.383-.605 2.68-1.382 4.062-2.074.26-.086.7 0 1.037 0 .26 0 .432-.173.605-.345.345-.26.7-.778.95-.692 1.2.173 2.074-.26 2.42-1.382.087 0 .087-.087.173-.087.432-.345.864-.7 1.296-.95l5.618-3.112c.086-.086.26 0 .432 0 .26 0 .605 0 .777-.086 1.124-.52 2.16-1.123 3.198-1.728-.26-.087 0-.173-.864-.26v-.173c.864-.172 1.123-.26 1.642-.432l-.173-.172c2.247-2.247 5.1-3.89 7.26-5.8.432.086.605.172.864.172.087-.26.087-.518.087-.7.345-.433.7-.952 1.123-1.297 1.9-1.73 3.976-3.198 5.704-5.013 2.506-2.506 4.926-5.098 7.173-7.777 2.074-2.42 4.148-4.84 5.876-7.52 2.42-3.716 4.494-7.518 6.654-11.407 1.556-2.766 2.94-5.53 4.494-8.297.173-.26.52-.604.778-.604l6.914-.692c.518-.086 1.123-.432 1.642-.7-.26-.433-.433-.952-.692-1.384-.345-.52-.864-.95-1.2-1.47-.345-.432-.604-.95-.864-1.47-.26-.432-.518-.778-.778-1.2-.518-.95-1.037-1.9-1.47-2.938-.085-.26-.258-.692-.172-.95 1.556-3.37 2.16-7 3.63-10.37 1.47-3.458 1.9-7.347 2.593-11.063.605-3.543.95-7.086 1.382-10.63.26-2.506.605-4.926.692-7.432.518-3.975.345-7.7.26-11.407zM38.642 217.54c-.603-.7-1.122-1.47-1.727-2.16l.26-.26 2.852 3.198c-.518-.26-1.123-.432-1.383-.778zm1.384.778c.26-.086.52-.086.778-.173.26.432.432.95.7 1.47-1.2-.087-1.814-.606-1.468-1.297zM129.902 254v-.26l4.84-.518v.26a45.946 45.946 0 0 1-4.84.517zm21.778-2.247c-1.2.26-2.506.432-3.716.605-.432.087-.95.52-1.123-.26-.173.086-.346.086-.52.173.433 1.296 1.47.26 2.334.778l-5.53.69v-.173l1.642-.26v-.26c-.865-.087-1.73-.173-2.593-.173-.26 0-.605.346-.864.432-.346.086-.692.173-1.124.173-1.47.086-2.938.086-4.32.173-.086 0-.26-.087-.345-.087v-.26l17.284-2.333c.086.172.086.345.172.518-.518 0-.864.173-1.296.26zm1.296-.864l5.704-.7c-3.975 1.122-5.27 1.295-5.704.7zM77.705 76.42l8.383-11.495c.864-1.123 1.555-2.333 2.42-3.456.26-.346.604-.52 1.037-.865l-.087-.172c.346-.433.7-.778.864-1.124.432-.7.692-1.47 1.037-2.247.087-.173.346-.345.346-.345 1.2.604 1.2-.692 1.642-1.124a61.142 61.142 0 0 0 2.247-2.679c.518-.7 1.037-1.296 1.47-2.074.086-.26-.173-.7-.26-1.037h-.258c.26-.173.518-.432.777-.605.087 0 .087 0 .173-.086.52-.778 1.037-1.556 1.556-2.247 1.037-1.383 2.16-2.766 3.37-3.976-.173.432-.346.865-.518 1.2.086 0 .086.087.172.087 1.037-1.383 2.16-2.68 3.198-4.062-.087-.086-.173-.173-.26-.173-.43.432-.777.864-1.2 1.296-.086-.086-.172-.172-.26-.172.866-1.124 1.73-2.247 2.594-3.544.173.26.346.605.7 1.297.347-.865.693-1.47.952-2.074-.26.26-.605.518-.864.777l-.26-.26 1.556-2.333 4.926-7.087c.605-.864 1.383-1.555 1.9-2.42 1.643-3.284 4.236-5.877 6.223-8.902.433-.604 1.037-1.123 1.556-1.642.432-.518.778-.345 1.124.087l7 8.9c1.73 2.16 3.457 4.235 5.1 6.48l5.877 8.297 6.654 9.68 9.68 14.517 7.173 10.544h-4.408c-4.06-.087-8.2-.433-12.27-.26-5.53.26-11.148.864-16.68 1.296-7 .605-14.086.692-21.085.692-2.507 0-5.013.345-7.52.518l-8.987.433c-3.543.172-7 .26-10.543.345-1.987.087-4.062 0-6.222 0zm99.123 39.752v.778c-.086 0-.173.086-.346.086-.345-1.2-.69-2.506-1.123-3.716-.864-2.506-1.815-5.012-3.37-7.26-1.73-2.42-3.284-4.926-5.013-7.432-.432-.605-1.037-1.124-1.555-1.642-1.815-1.988-3.63-4.062-5.963-5.53a70.75 70.75 0 0 0-10.803-5.532c-1.037-.432-1.987-.95-3.024-1.555h2.074l14.778-.26 9.506-.26c.778 0 1.2.26 1.642.95.778 1.296 1.555 2.592 2.42 3.9.087.17.26.43.26.7l.086 5.8.346 5.877c0 1.987-.173 4.06-.087 6.135l.173 8.988zM83.84 87.22l11.926-.605 9.42-.432c1.297-.087 2.507-.173 3.803 0-1.383.69-2.765 1.382-3.975 2.247-1.556 1.036-3.025 2.42-4.58 3.543s-2.938 2.506-4.234 3.975c-1.642 1.988-3.457 3.716-5.185 5.617-1.2 1.383-2.593 2.68-3.63 4.148-1.47 1.902-2.765 3.976-4.148 6.136.432-8.2.95-16.333.605-24.63zm56.432 83.135c-2.766.69-5.617 1.47-8.47 1.815-2.42.346-4.925.26-7.43.26-2.247 0-4.408-.087-6.655-.26-2.506-.26-5.012-.52-7.432-1.642-2.074-.95-4.234-1.815-6.308-2.852s-4.15-2.247-5.704-4.148c-1.124-1.383-2.68-2.506-4.062-3.716a4.073 4.073 0 0 0 1.815 2.506c-.432.52-1.037.26-1.9-1.123-.26.172-.52.26-.692.345.26-.605.52-1.21.778-1.728-.345-.7-.778-1.47-1.123-2.16a70.764 70.764 0 0 1-1.988-3.457c-.173-.26-.173-.52-.346-.778-.432-.52-.864-1.037-1.2-1.556-.69-1.037-1.296-2.16-2.16-3.197 0 .26.086.518.086.864-.086 0-.172.086-.172.086l-1.815-4.407c-.087 0-.087 0-.173.087l1.556 5.703c-.087 0-.173.087-.26.087-.26-.346-.518-.692-.69-1.124-.173-.7-.69-.7-1.124-.432-.26.173-.432.778-.345 1.037.605 1.47 1.296 2.938 1.987 4.408.173.518.346.95.605 1.47.087.172.346.344.346.604.346.69.605 1.382 1.037 1.987.778 1.037 1.642 2.074 2.42 3.11s1.47 2.16 2.16 3.198c.087.173.346.173.432.26.433 1.295 1.902 2.246 2.94 1.728.26 1.987 2.42 2.68 3.284 4.58a39.795 39.795 0 0 1-2.507-1.124c-.086.087-.086.173-.172.346 1.037.518 2.074 1.037 3.024 1.642.864.518 1.73 1.037 2.506 1.642 1.038.95 2.247 1.47 3.717 1.815-.087-.26-.173-.346-.173-.346a277.903 277.903 0 0 1 6.827 3.284l-28.52.518c0-1.642-.085-3.197-.085-4.84 0-.7.173-1.296.086-1.988-.26-3.975-.26-7.95-.777-11.84-.52-4.148-.52-8.2-.432-12.358.086-2.247-.087-4.58-.173-6.827l.086-8.988c0-.432.173-.778.346-1.2h.26c.086.173 0 .432.173.52.26.258.7.7.864.604.52-.346 1.296-.692 1.47-1.2.432-1.037.605-2.16.605-3.198 0-.777.346-1.296.7-1.815.174-.26.26-.518.434-.864-.346-.26-.692-.432-1.124-.777.346-.95.26-2.075 1.556-2.593.173-.087.173-.52.26-.778l.26-2.16c.173.26.26.345.432.518.087-.173.173-.26.173-.26 0-.346-.086-1.037 0-1.037 1.037-.173.605-1.296 1.124-1.815.086-.086-.087-.346-.087-.518s0-.433.087-.433c1.21-.26 1.037-1.555 1.814-2.16.26-.173.346-.432.692-.864.7 1.2-.52 1.815-.605 2.68 1.47-.865 1.9-2.94 1.037-3.544a5 5 0 0 0 .95-.95c.95-1.038 1.988-1.99 2.852-3.026.605-.778.95-1.728 1.556-2.506.346-.432 1.037-.778 1.555-1.037 1.556-.864 3.025-1.815 3.976-3.284.173-.173.432-.346.7-.518s.78-.173.865-.433c.087-.172-.173-.604-.346-.864.346-.173.692-.518 1.383-.864-.26.52-.345.864-.518 1.2l.432.432c.778-.605 1.988-1.296 2.765-1.815 0-.086-.432-.432-.432-.432-.518.26-1.296.692-2.074 1.037.173-.26.173-.432.26-.518 1.2-.778 2.42-1.556 3.716-2.16l9.074-4.063c.52-.26 1.2-.086 1.815-.086.26 0 .432 0 .692-.086 1.382-.432 2.765-.864 4.148-1.2a7.19 7.19 0 0 1 1.9-.259c2.594.086 5.186.086 7.78.26 1.123.085 2.16.345 3.197.7 1.297.432 2.68 1.037 3.89 1.642a42.747 42.747 0 0 1 4.235 2.593c2.506 1.642 4.84 3.456 7.345 4.926 2.42 1.47 4.32 3.456 5.877 5.703 1.9 2.68 4.062 5.1 4.926 8.383l1.296 5.704c.26 1.037.864 2.074.605 3.284-.432 2.16-.778 4.407-1.123 6.568-.173.864-.346 1.728-.26 2.592.173 2.68-.864 5.012-1.9 7.432-.346.778-.864 1.556-1.296 2.42.086.086.605.346.7.346l.78-1.556c.086 0 .086 0 .173.087-.432 1.2-.778 2.506-1.2 3.716-1.037 2.68-2.074 5.444-3.37 8.037-.692 1.47-1.902 2.68-2.766 4.06-.864 1.2-1.555 2.506-2.42 3.63-.777.95-1.555 1.9-2.592 2.593-2.334 1.728-4.753 3.456-7.26 4.84-1.555.95-3.37 1.468-5.098 1.9zm-46.062-4.58l-.086.086c-.173-.086-.432-.173-.605-.345l-2.074-3.1c-.173-.26-.26-.52-.173-.866a73.511 73.511 0 0 0 2.938 4.235zm53.753 11.84c3.89-1.643 7.087-3.976 10.025-6.655.432-.432.864-.864 1.383-1.2 3.63-2.247 6.308-5.358 8.728-8.815 2.765-3.975 4.58-8.47 6.827-12.703.173-.346.346-.692.52-.95-.173 9.85.95 19.53 2.246 29.295l-29.728 1.037zm87.63-2.593c-.087.173-.26.345-.346.518-.087-.173-.087-.432-.173-.777-.52 1.382-1.642.69-2.42.69l-27.654.173c-1.47 0-3.025.345-4.494.432-3.543.173-7.086.26-10.63.345-.26 0-.518-.432-.95-.777-.086.173-.26.432-.52.777-.085-.172-.258-.345-.43-.604a5.98 5.98 0 0 1-.26.691h-.258c-.173-1.2-.52-2.333-.52-3.543 0-2.593.26-5.185.347-7.778.086-1.2 0-2.333 0-3.457l.95.692c.173-.346.346-.605.52-.865 0 0-.173-.086-.346-.26.173-.086.346-.26.346-.345.087-.26.26-.52.26-.692 0-.605-.172-1.123-.26-1.642.088 0 .174 0 .26-.086l.52 2.592h.26c-.345-.605.778-1.123-.173-1.815-.086-.086.087-.605.087-.864-.26-.518-.432-1.037-.692-1.728.087-.086.346-.173.605-.26-.345-.173-.605-.346-.864-.433.864-.777.864-1.21.087-2.074.172-.086.345-.086.345-.172 0-.778 0-1.556-.173-2.334-.172-.864.26-1.9-1.037-2.42a2.6 2.6 0 0 0 .346.691s-.26.086-.52.26c-1.122-1.038-.43-2.42-.7-3.976.605.173 1.037.346 1.47.518-.173-.604-.605-1.296-.864-2.074h-.346v-5.703c0 .086.605.086.95.172 0-.086.087-.172.087-.26-.26-.346-.605-.7-.95-1.123l.173-.173c-.692-.864-.346-2.074-.346-2.333v-6.05c.864.864-.432 1.988.864 2.506v-.864h-.086c-.087-1.296-.087-2.592-.173-3.89h-.173c-.086.173-.086.26-.173.432h-.173l.52-20.654c.864 1.124 1.815 2.16 2.42 3.284 1.987 3.63 4.58 6.74 7 10.025 2.074 2.852 3.975 5.963 5.876 8.9l6.914 10.63a253.707 253.707 0 0 0 5.358 7.95c1.642 2.333 3.37 4.58 5.1 6.827l4.493 5.963 5.186 7.173c.864 1.2 1.814 2.42 2.765 3.63.518.69 1.296 1.2 1.815 1.642-.087 0-.173 0-.346-.087.26.346.432.605.605.778.95.518 1.037 1.037.52 1.815zM240 153.418v-.605c0 .173.086.432 0 .605zm2.938-38.1c-.086 0-.605-.52-.69-.606-.087.26 0 .518-.173.864-.086-.26-.69-.173-.69-.432-.087 1.2.518 2.42.432 3.63.26-.173 1.296-.26 1.555-.52.087.087.26.173.346.173-1.728 1.296-1.296 2.593-.52 4.062.174.345.693 1.037.174 1.728-.173.173.087.692.173 1.124h.26v.172l-.777.26c-.173-.26-1.2-.778-1.2-1.2v4.407c.864.26.864 1.47 1.2 2.074.172-.26.26-.432.345-.7l.087.085c-.087.52-.173 1.037-.346 1.556-.173.778-.346 1.47-.432 2.247 0 .086.173.26.173.345-.95 2.16-.432 4.58-.778 6.828-.26 1.642 0 3.37-.173 5.098-.173 1.47-.518 3.025-.864 4.494-.086.26-.26.346-.69.52.172-1.038.086-1.73-.087-2.68-.086 0-1.2-.605-1.296-.605 0 1.2.7 2.852.95 4.234-.26-.086-1.296-.7-1.382-.7-.173 1.036-.173 2.42-.26 3.542-.086.864-.864 1.642-.95 2.593 0 .518.605.864.518 1.728h.692c0-1.728.778-3.284.778-5.1h.26c.086.173.346.346.26.433-.173.95-.518 1.987-.432 2.938 0 .518.432 1.037.26 1.642-.173.518-.26 1.037-.345 1.814-.087-.432-.173-.604-.173-.864-.087 0-.864-.086-.95-.086-.086.518.605 1.037.52 1.47-.087.086-.173.086-.346.172l-2.852-4.148-6.74-9.938a20.627 20.627 0 0 1-1.555-2.593c-2.68-4.58-5.617-8.988-8.9-13.222-2.507-3.198-4.494-6.655-6.828-10.025l-6.48-9.506c-.778-1.037-1.728-1.988-2.42-3.1-2.247-3.544-4.234-7.174-6.48-10.717-1.9-2.94-3.976-5.8-5.963-8.642a92.195 92.195 0 0 1-2.074-3.025c-.087-.173-.173-.346-.173-.605l-.432-5.617c0-1.73.173-3.457.173-5.272v-1.555c0-.432.086-.778.086-1.2.086-.087.173-.26.26-.346-2.506 0-5.098-.086-7.605 0-1.64.087-2.506-.605-3.63-1.814-3.283-3.717-5.703-7.95-8.555-11.926-2.68-3.803-5.444-7.52-8.2-11.235l-6.74-8.988-7.52-10.37-9.505-12.444c-1.47-1.902-3.11-3.716-4.753-5.704 1.123.173 2.16.346 3.198.432l4.148.26c3.1.26 6.222.43 9.333.863 2.593.346 5.185.865 7.864 1.297 5.704.95 11.32 2.506 16.766 4.32 3.197 1.037 6.308 2.42 9.42 3.716 7 2.852 13.655 6.308 20.222 9.938 2.075 1.123 3.284 2.938 4.84 4.58l6.654 7.087c2.506 2.852 4.84 5.8 7.26 8.728l6.568 7.778c.692.778 1.2 1.728 1.815 2.592 1.383 2.074 2.938 4.062 4.148 6.3.865 1.64 1.383 3.542 1.988 5.357l2.593 7.95a71.016 71.016 0 0 1 1.555 6.135c.346 1.383.26 2.852.7 4.235.52 1.815 0 3.802.52 5.617.086.173.173.432.26.605.346.346.605.69.087 1.2-.087.086-.087.432 0 .69.172-.172.26-.345.432-.605 0 .173.086.26.086.346 0 .346-.086.69 0 1.037 0 .173.173.432.26.605.173-.173.346-.26.692-.518.777 2.938.864 5.876.864 8.9 0 2.852.518 5.703-.69 8.47.26-.952-.346-1.816-.087-2.68z"/><path d="M188 149.197c.086 0 .173.087.173.087l-.087-.087c0-.086 0-.086-.086 0zm13.654 85.383c-.95.69-1.9 1.296-3.11 1.555-.086-.086-.086-.173-.173-.26l2.94-1.815c.086.173.26.346.345.52zM39.62 117.48l2.938-3.63c.086.086.778.26.864.345l-3.197 4.148c-.173-.172-.432-.777-.605-.864zm-24.543 42.346l-2.074-4.494c.086-.086.69-.346.777-.346.95 1.383 1.383 3.025 2.074 4.494l-.777.346zm22.037-41.482l-1.556 2.42c-.086-.086-1.037.346-1.123.26.518-.777 1.814-2.16 2.333-2.938a1.17 1.17 0 0 0 .346.259zm155.295 119.778c.087 0 .087-.087.173-.087.605.087 1.297.173 1.988.173-1.124.778-1.815.692-2.16-.086zM37.285 121.975c.087-.26.26-.52.432-.778.173 0 .433-.086.433-.086.345-.605.345-1.037.69-1.556-.086-.086-.173-.086-.26-.173l-1.556 1.124c.173.173.173.26.173.432-.69-.086-.95.26-1.296 1.2-.087.26-.52.345-.95.69-.086.173-.173.605-.346 1.037l.087.087a1.279 1.279 0 0 1-.432.259c-.52.518-1.124.95-1.642 1.47-.087.26-.173.52-.173.778l2.42-2.42.086.086.95-1.555c.086.086.086.173.173.26l-.778 2.16c-.173.086-.432.26-.432.173-.346.26-.605.604-.95.864l-1.555 1.037-2.68 2.247-1.902 2.938c1.037-.26 1.297.173 1.2 1.037 1.2.173 1.296-.778 1.642-1.47.087-.173.173-.52.346-.605.778-.69 1.642-1.296 2.506-1.988.173-.173.173-.518.173-.778 0-.086-.432-.086-.69-.172l2.68-3.284c.432-.26.864-.605.864-.865-.087-.95.518-1.21 1.21-1.555-.345-.26-.432-.52-.432-.605z"/><path d="M39.014 121.024l-1.037 1.73-.52-.26c-.345 1.988-1.555 3.717-2.765 4.062.346.173.69.346.95.26s.432-.518.604-.777l2.334-3.37.778-1.296-.346-.346zm-28.778 37.938c.432 0 .864.087 1.383.087 0-.346.432-.26.432-.605h.26c0 .432.087.778.087 1.2h-1.815c-.087-.087-.432-.605-.346-.692zm-.69-3.975c-.26-.26-.692-.518-.692-.778-.086-.345.173-.777.433-1.21l.432 1.728c-.087.086-.173.173-.173.26zm2.16-5.53l1.037 2.68c-.086 0-.605.26-.69.346l-1.123-2.68c.086-.086.604-.346.777-.346zm192.37 82.618c.432-.173.95-.26 1.642-.433l-1.9 1.556c-.087-.087-.173-.173-.26-.173l.518-.95zM97.866 49.47l1.47-.95.173.173-1.556 2.247-.173-1.383c-.086 0 0 0 .087-.086zm25.32 43.728l2.507-1.123c-.087.518-.087.864-.087 1.2-.26-.087-.605-.173-.864-.173-.518.086-1.47.778-1.9.864-.087 0 .345-.69.345-.778zM188 166.48c.173.864 1.815 1.296.173 2.16.26.173.518.26.778.433 0 .086-.087.26-.173.345-.173.087-.52.26-.692.173-.086 0-.26-.346-.26-.518 0-.778.087-1.556.173-2.593z"/></svg>