<svg xmlns="http://www.w3.org/2000/svg" width="0.87em" height="1em" preserveAspectRatio="xMidYMid meet" viewBox="0 0 256 296"><path fill="#673ab8" d="M128 0l128 73.9v147.8l-128 73.9L0 221.7V73.9z"/><g fill="#fff"><path d="M34.865 220.478c17.016 21.78 71.095 5.185 122.15-34.704s80.24-88.345 63.224-110.126-71.095-5.184-122.15 34.704-80.24 88.346-63.224 110.126zm7.27-5.68c-5.644-7.222-3.178-21.402 7.573-39.253 11.322-18.797 30.54-39.548 54.06-57.923s48.303-32.004 69.28-38.442c19.922-6.113 34.277-5.075 39.92 2.148s3.178 21.403-7.573 39.254c-11.322 18.797-30.54 39.547-54.06 57.923s-48.304 32.004-69.28 38.44c-19.922 6.114-34.277 5.076-39.92-2.147z"/><path d="M220.24 220.478c17.017-21.78-12.17-70.237-63.224-110.126S51.88 53.868 34.865 75.648s12.17 70.238 63.224 110.126 105.133 56.485 122.15 34.704zm-7.27-5.68c-5.643 7.224-19.998 8.262-39.92 2.148-20.978-6.437-45.76-20.066-69.28-38.44S61.03 139.38 49.7 120.583c-10.752-17.85-13.218-32.03-7.575-39.254s20-8.26 39.92-2.148c20.978 6.438 45.762 20.067 69.28 38.442s42.74 39.126 54.06 57.923c10.752 17.85 13.218 32.03 7.574 39.254zm-85.418-47.13c10.827 0 19.603-8.777 19.603-19.604s-8.776-19.603-19.603-19.603-19.604 8.777-19.604 19.603 8.777 19.604 19.604 19.604z"/></g></svg>