<svg xmlns="http://www.w3.org/2000/svg" width="0.67em" height="1em" preserveAspectRatio="xMidYMid meet" viewBox="0 0 256 383"><path d="M253.422 214.246H2.192v-14.168a17.24 17.24 0 0 1 17.236-17.237h216.757a17.24 17.24 0 0 1 17.237 17.237v14.168z" fill="#dfdedf"/><path d="M235.92 378.553H19.692c-9.666 0-17.502-7.836-17.502-17.502V214.246h251.23V361.05c0 9.666-7.835 17.502-17.502 17.502" fill="#fff"/><path d="M250.302 211.398v-12.706c0-7.5-6.08-13.582-13.58-13.582H19.28c-7.5 0-13.58 6.08-13.58 13.582v12.706h244.604zm0 151.47v-145.77H5.698v145.77c0 7.502 6.08 13.582 13.58 13.582H236.72c7.5 0 13.58-6.08 13.58-13.58zM20.554 179.413l.846-9.236-3.592 9.3c.487-.037.974-.074 1.47-.074h1.275zm213.4-15.57l1.254 15.57h1.512c.8 0 1.6.066 2.384.163l-5.15-15.733zm17.247 22.164c2.977 3.394 4.798 7.826 4.798 12.685v164.175c0 10.63-8.65 19.28-19.28 19.28H19.28C8.65 382.147 0 373.5 0 362.867V198.693c0-5.152 2.043-9.827 5.347-13.3l19.22-49.817 8.38-91.554 9.456.865-7.552 82.492 2.66 1.026-3.6 9.358-3.812 41.64h195.593L214.83 44.67l9.464-.763 6.406 79.468 20.503 62.634zm-230.046 8.4a4.302 4.302 0 1 1 0 8.603 4.302 4.302 0 0 1 0-8.603zm14.7 0a4.302 4.302 0 1 1 0 8.603 4.302 4.302 0 0 1 0-8.603zm14.244 0a4.302 4.302 0 1 1 0 8.603 4.302 4.302 0 0 1 0-8.603zm-14.087 93.34c.74-.855 1.128-1.98 1.128-3.374s-.4-2.475-1.128-3.33c-.778-.855-1.868-1.26-3.268-1.26h-6.847v9.223h6.847c1.4 0 2.5-.405 3.268-1.26zm-3.268-13.497c2.956 0 5.3.9 7.04 2.744s2.608 4.318 2.608 7.38c0 3.102-.856 5.532-2.567 7.376-1.75 1.846-4.085 2.8-7.08 2.8h-6.847v12.414h-5.3V274.25h12.138zm28.544 20.057v-9.54h5.698v21.54h-5.698v-1.942c-1.727 1.726-3.97 2.6-6.777 2.6-2.6 0-4.662-.863-6.26-2.546s-2.374-3.842-2.374-6.518V284.77h5.698v11.914c0 1.5.388 2.763 1.208 3.67.777.906 1.813 1.38 3.15 1.38 3.583 0 5.353-2.46 5.353-7.424zm27.926 5.914c1.122-1.166 1.683-2.72 1.683-4.662s-.56-3.54-1.683-4.705c-1.166-1.166-2.6-1.77-4.36-1.77-1.597 0-3.02.604-4.273 1.813s-1.856 2.762-1.856 4.662.604 3.454 1.856 4.618c1.252 1.2 2.676 1.814 4.273 1.814 1.77 0 3.194-.604 4.36-1.77zm-3.367-16.1c2.806 0 5.3 1.08 7.425 3.238 2.115 2.2 3.15 4.92 3.15 8.2s-1.035 6-3.15 8.16-4.576 3.237-7.425 3.237c-2.806 0-5.18-.777-7.122-2.33v11.96h-5.698V284.77h5.698v1.727c1.9-1.597 4.273-2.374 7.122-2.374zm31.078 16.1c1.122-1.165 1.683-2.72 1.683-4.66s-.56-3.54-1.683-4.705c-1.166-1.166-2.6-1.77-4.36-1.77-1.597 0-3.02.604-4.273 1.813s-1.857 2.762-1.857 4.662.605 3.454 1.857 4.618c1.252 1.2 2.676 1.814 4.273 1.814 1.77 0 3.194-.604 4.36-1.77zm-3.368-16.1c2.806 0 5.3 1.08 7.426 3.238 2.114 2.2 3.15 4.92 3.15 8.2s-1.036 6-3.15 8.16-4.576 3.237-7.426 3.237c-2.805 0-5.18-.777-7.122-2.33v11.96h-5.697V284.77h5.697v1.727c1.9-1.597 4.274-2.374 7.122-2.374zm19 8.935h10.403c-.345-1.338-.993-2.33-1.9-2.98s-1.985-1-3.195-1a5.684 5.684 0 0 0-3.28 1.036 4.8 4.8 0 0 0-2.03 2.935zm5.3-8.935c2.935 0 5.482 1.036 7.597 3.065 2.115 2.072 3.194 4.704 3.324 7.942v1.943h-16.403c.302 1.5.95 2.718 1.943 3.626s2.114 1.38 3.452 1.38c2.46 0 4.23-.95 5.353-2.848l5.094 1.08c-.907 2.202-2.288 3.843-4.1 4.965s-3.93 1.682-6.347 1.682c-3.108 0-5.74-1.078-7.856-3.193s-3.195-4.878-3.195-8.202 1.08-6.086 3.238-8.245c2.115-2.114 4.75-3.194 7.9-3.194zm26.632 17.526c1.08 0 2.288-.346 3.583-1.036l1.64 4.748c-1.986 1.08-3.842 1.597-5.612 1.597-2.633 0-4.705-.734-6.216-2.16s-2.244-3.538-2.244-6.43v-8.936h-4.62v-4.662h4.62v-6.517h5.698v6.517h7.036v4.662h-7.036v8.504c0 2.46 1.036 3.713 3.15 3.713zm11.954-8.6h10.403c-.345-1.338-.993-2.33-1.9-2.98s-1.985-1-3.195-1a5.684 5.684 0 0 0-3.28 1.036 4.8 4.8 0 0 0-2.03 2.935zm5.3-8.935c2.935 0 5.482 1.036 7.597 3.065 2.115 2.072 3.194 4.704 3.324 7.942v1.943H176.26c.302 1.5.95 2.718 1.943 3.626s2.114 1.38 3.452 1.38c2.46 0 4.23-.95 5.353-2.848l5.093 1.08c-.906 2.202-2.287 3.843-4.1 4.965s-3.928 1.682-6.346 1.682c-3.108 0-5.74-1.078-7.856-3.193s-3.195-4.878-3.195-8.202 1.08-6.086 3.238-8.245c2.115-2.114 4.75-3.194 7.9-3.194zm20.285 8.935h10.403c-.345-1.338-.993-2.33-1.898-2.98s-1.986-1-3.196-1a5.684 5.684 0 0 0-3.28 1.036 4.8 4.8 0 0 0-2.03 2.935zm5.3-8.935c2.935 0 5.482 1.036 7.597 3.065 2.115 2.072 3.195 4.704 3.325 7.942v1.943h-16.404c.302 1.5.95 2.718 1.944 3.626s2.114 1.38 3.452 1.38c2.46 0 4.23-.95 5.352-2.848l5.095 1.08c-.907 2.202-2.288 3.843-4.1 4.965s-3.93 1.682-6.346 1.682c-3.108 0-5.742-1.078-7.856-3.193s-3.196-4.878-3.196-8.202 1.08-6.086 3.238-8.245c2.115-2.114 4.75-3.194 7.9-3.194zm28.66.345c.65 0 1.167.043 1.513.172l-.303 5.483h-1.25c-5.137 0-7.685 3.065-7.685 9.238v6.95h-5.697v-21.54h5.697v3.928c1.943-2.806 4.533-4.23 7.727-4.23z"/><path fill="#00d8a2" d="M211.095 132.638l30.74-14.84v-14.84l-71.023-33.923 71.023-36.57v-14.3l-29.68-13.782-84.097 41.87-85.5-41.87-27.56 14.84v12.72l66.78 36.57-66.782 33.922v15.37l28.62 14.84 84.803-43.462z"/><path d="M214.95 126.585v-6.392l23.14-11.99v7.18l-23.14 11.203zm-198.1-18.55L39.2 120.87v5.1l-22.36-11.312v-6.634zM131.383 81.04l76.92 38.005v7.642l-76.92-39.405V81.04zm-85.526 39.117l78.88-39.1v6.233l-78.88 39.908v-7.03zm55.852-63.905L21.887 17.714 42.56 7.207l85.5 44.323 84.067-44.304L233.53 18.19l-77.84 39.174c-3.113 1.566-3.108 6 .007 7.57l77.038 38.557-19.968 10.347-84.708-43.403-86.206 44.29-19.69-11.303 79.6-39.562c3.152-1.567 3.126-6.075-.045-7.606zM17.844 30.77v-7.014L92.3 60.9l-7.526 3.007-66.92-33.135zm152.654 33.548c-.102-.062-7.13-3.378-7.13-3.378l74.72-37.605v7.045L170.5 64.32zm7.48 3.683l65.674-32.976a1.969 1.969 0 0 0 1.085-1.76v-15.6a1.97 1.97 0 0 0-1.07-1.752L213.032.222a1.97 1.97 0 0 0-1.788-.003L128.94 41.983a1.965 1.965 0 0 1-1.769.006L43.42.207a1.97 1.97 0 0 0-1.77.007L11.28 15.648a1.969 1.969 0 0 0-1.078 1.755v15.855a1.97 1.97 0 0 0 1.097 1.765l65.95 32.584-65.646 32.595a1.968 1.968 0 0 0-1.092 1.727l-.287 15.6a1.969 1.969 0 0 0 1.08 1.793l31.536 15.956a1.97 1.97 0 0 0 1.772.002l82.558-41.455a1.968 1.968 0 0 1 1.775.004l81.53 41.454a1.97 1.97 0 0 0 1.748.017l31.402-15.203a1.969 1.969 0 0 0 1.111-1.771v-16.3a1.97 1.97 0 0 0-1.1-1.767l-65.66-32.257z"/></svg>