<svg xmlns="http://www.w3.org/2000/svg" width="1.05em" height="1em" preserveAspectRatio="xMidYMid meet" viewBox="0 0 256 244"><path d="M177.38 169.733c9.447-.978 16.614-9.122 16.288-18.896s-8.47-17.592-18.243-17.592h-.65c-10.1.326-17.918 8.796-17.592 18.895.326 4.887 2.28 9.122 5.212 12.054-11.076 21.828-28.016 37.79-53.426 51.148-17.266 9.122-35.183 12.38-53.1 10.1-14.66-1.955-26.062-8.47-33.23-19.222-10.424-15.963-11.4-33.23-2.605-50.496 6.2-12.38 15.962-21.502 22.152-26.063-1.303-4.235-3.258-11.402-4.235-16.614C-9.286 147.254-4.4 193.515 9.935 215.342c10.75 16.3 32.577 26.39 56.684 26.39 6.515 0 13.03-.652 19.546-2.28 41.7-8.145 73.3-32.905 91.216-69.718zm57.336-40.397c-24.76-28.995-61.245-44.958-102.944-44.958h-5.212c-2.932-5.864-9.122-9.774-15.963-9.774h-.652C99.848 74.93 92.03 83.4 92.355 93.5c.326 9.773 8.47 17.592 18.243 17.592h.65c7.167-.326 13.357-4.887 15.963-11.077h5.864c24.76 0 48.214 7.167 69.4 21.176 16.288 10.75 28.016 24.76 34.53 41.7 5.538 13.683 5.212 27.04-.652 38.443-9.12 17.266-24.432 26.714-44.63 26.714-13.03 0-25.4-3.9-31.926-6.842-3.583 3.258-10.1 8.47-14.66 11.73 14.01 6.515 28.343 10.1 42.025 10.1 31.274 0 54.404-17.267 63.2-34.533 9.447-18.896 8.795-51.474-15.637-79.165zM69.225 175.27c.326 9.774 8.47 17.592 18.243 17.592h.652c10.1-.325 17.917-8.796 17.59-18.895-.325-9.774-8.47-17.592-18.243-17.592h-.65c-.652 0-1.63 0-2.28.325-13.357-22.153-18.895-46.26-16.94-72.323C68.9 64.83 75.415 47.89 86.817 33.88c9.447-12.054 27.7-17.918 40.07-18.243 34.53-.652 49.2 42.35 50.168 59.618 4.235.977 11.402 3.258 16.29 4.887C189.434 27.366 156.857 0 125.584 0c-29.32 0-56.36 21.176-67.1 52.45-14.985 41.7-5.212 81.77 13.03 113.372-1.628 2.28-2.606 5.864-2.28 9.448z" fill="#764abc"/></svg>