<svg xmlns="http://www.w3.org/2000/svg" width="1.34em" height="1em" preserveAspectRatio="xMidYMid meet" viewBox="0 0 256 192"><path d="M220.28 110.514c-8.906.046-16.647 2.19-23.128 5.362-2.38-4.7-4.757-8.906-5.176-11.984-.467-3.6-1.026-5.782-.467-10.072s3.078-10.4 3.03-10.865-.56-2.658-5.69-2.704-9.56.98-10.072 2.33-1.492 4.43-2.145 7.6c-.886 4.664-10.258 21.3-15.62 30.03-1.726-3.403-3.218-6.388-3.545-8.766-.466-3.6-1.026-5.782-.466-10.072s3.078-10.398 3.03-10.865-.56-2.658-5.69-2.704-9.56.98-10.072 2.33-1.073 4.523-2.145 7.6-13.523 30.87-16.787 38.05a214.726 214.726 0 0 1-4.15 8.627s-.047.14-.187.373a117.773 117.773 0 0 1-1.398 2.658v.046c-.7 1.26-1.446 2.425-1.82 2.425-.28 0-.793-3.357.093-7.927 1.865-9.652 6.295-24.667 6.25-25.18 0-.28.84-2.89-2.89-4.244-3.638-1.352-4.943.886-5.27.886s-.56.793-.56.793 4.058-16.88-7.74-16.88c-7.367 0-17.533 8.067-22.57 15.34a6269.96 6269.96 0 0 0-17.16 9.373l-8.253 4.523c-.187-.186-.373-.42-.56-.606-14.27-15.248-40.66-26.02-39.542-46.5.42-7.46 2.984-27.046 50.687-50.827 39.262-19.352 70.505-14 75.914-2.1 7.74 16.974-16.74 48.496-57.31 53.065-15.48 1.726-23.595-4.243-25.646-6.48-2.145-2.332-2.472-2.472-3.265-2.005-1.305.7-.466 2.798 0 4 1.213 3.17 6.202 8.766 14.642 11.518 7.46 2.424 25.6 3.777 47.563-4.7 24.574-9.513 43.786-35.952 38.144-58.1C154.672 1.4 117.368-6.015 82.07 6.528 61.086 14 38.33 25.74 21.963 41.035 2.518 59.22-.56 75.028.7 81.65c4.524 23.5 36.932 38.796 49.895 50.127l-1.772.98c-6.482 3.217-31.196 16.133-37.35 29.796-6.994 15.48 1.12 26.58 6.482 28.07C34.6 195.24 51.713 186.94 60.9 173.23s8.067-31.522 3.824-39.682c-.047-.093-.093-.187-.187-.28l5.083-2.984a247.933 247.933 0 0 1 9.373-5.27c-1.586 4.337-2.752 9.513-3.31 16.974-.7 8.767 2.9 20.144 7.6 24.62 2.1 1.96 4.57 2.006 6.156 2.006 5.502 0 7.974-4.57 10.725-9.98 3.357-6.62 6.388-14.315 6.388-14.315s-3.777 20.797 6.482 20.797c3.73 0 7.507-4.85 9.186-7.32v.046s.093-.14.28-.466l.606-.98v-.092c1.492-2.612 4.85-8.534 9.84-18.373 6.435-12.683 12.637-28.537 12.637-28.537s.56 3.87 2.47 10.305c1.12 3.777 3.45 7.927 5.316 11.937-1.492 2.1-2.425 3.264-2.425 3.264l.047.047c-1.213 1.585-2.518 3.3-3.964 5-5.083 6.06-11.144 13-11.984 15.014-.98 2.378-.746 4.104 1.12 5.503 1.352 1.026 3.776 1.165 6.248 1.026 4.57-.327 7.787-1.446 9.372-2.145 2.472-.886 5.363-2.24 8.067-4.244 5-3.684 8.02-8.953 7.74-15.9-.14-3.824-1.4-7.648-2.938-11.24.467-.652.886-1.305 1.353-1.958 7.88-11.518 13.99-24.155 13.99-24.155s.56 3.87 2.47 10.306c.933 3.264 2.845 6.808 4.523 10.258-7.414 6.016-11.984 13-13.616 17.58-2.937 8.487-.653 12.3 3.684 13.196 1.958.42 4.756-.513 6.808-1.4 2.61-.84 5.69-2.284 8.627-4.43 5-3.683 9.792-8.813 9.512-15.76-.14-3.17-.98-6.296-2.145-9.327 6.295-2.6 14.41-4.056 24.76-2.844 22.197 2.61 26.58 16.46 25.74 22.3s-5.502 9-7.04 9.978-2.052 1.306-1.912 2.005c.186 1.026.932.98 2.238.793 1.82-.326 11.658-4.7 12.077-15.435.7-13.71-12.357-28.677-35.44-28.537zM49.055 168.242c-7.368 8.02-17.626 11.05-22.056 8.487-4.756-2.752-2.89-14.596 6.155-23.082 5.502-5.176 12.6-9.98 17.3-12.917l4.57-2.75c.326-.187.513-.28.513-.28l1.12-.7c3.3 12.124.14 22.803-7.6 31.243zm53.625-36.465c-2.565 6.25-7.927 22.243-11.19 21.357-2.798-.746-4.524-12.87-.56-24.854 2.005-6.016 6.248-13.197 8.72-15.994 4-4.477 8.44-5.97 9.512-4.15 1.353 2.378-4.896 19.724-6.48 23.64zm44.252 21.17c-1.073.56-2.098.933-2.565.653-.326-.187.467-.933.467-.933s5.55-5.968 7.74-8.673l4.337-5.55v.606c0 7.135-6.902 11.938-9.98 13.896zm34.133-7.787c-.793-.56-.653-2.425 2.005-8.254 1.026-2.285 3.45-6.108 7.6-9.792.466 1.492.793 2.938.746 4.3-.047 9-6.48 12.357-10.352 13.756z" fill="#cd6799"/></svg>