<svg xmlns="http://www.w3.org/2000/svg" width="1em" height="1em" preserveAspectRatio="xMidYMid meet" viewBox="0 0 24 24"><path d="M12 .75C5.787.75.75 5.787.75 12S5.787 23.25 12 23.25 23.25 18.213 23.25 12 18.213.75 12 .75zm6.894 18.144a9.684 9.684 0 0 1-6.859 2.835 9.72 9.72 0 0 1-9.715-9.715C2.32 6.65 6.67 2.3 12.035 2.3a9.72 9.72 0 0 1 9.715 9.715 9.688 9.688 0 0 1-.79 3.843l.024-.063a9.768 9.768 0 0 1-2.09 3.099zM6.67 11.298l1.06 1.06 3.52-3.518v8.784h1.5V8.84l3.518 3.518 1.06-1.06L12 5.97 6.67 11.3z"/></svg>