<svg xmlns="http://www.w3.org/2000/svg" xmlns:xlink="http://www.w3.org/1999/xlink" aria-hidden="true" focusable="false" width="1em" height="1em" style="-ms-transform: rotate(360deg); -webkit-transform: rotate(360deg); transform: rotate(360deg);" preserveAspectRatio="xMidYMid meet" viewBox="0 0 24 24"><path d="M12 .75C5.787.75.75 5.787.75 12S5.787 23.25 12 23.25S23.25 18.213 23.25 12S18.213.75 12 .75zm6.894 18.144a9.684 9.684 0 0 1-6.859 2.835c-5.365 0-9.715-4.349-9.715-9.715s4.349-9.715 9.715-9.715c5.365 0 9.715 4.349 9.715 9.715a9.688 9.688 0 0 1-.79 3.843l.024-.063a9.768 9.768 0 0 1-2.09 3.099z" fill="black"/><path d="M6.671 11.298l1.061 1.061l3.518-3.518v8.784h1.5V8.841l3.518 3.518l1.061-1.061L12 5.969l-5.329 5.329z" fill="black"/></svg>