<svg xmlns="http://www.w3.org/2000/svg" width="1.23em" height="1em" preserveAspectRatio="xMidYMid meet" viewBox="0 0 256 209"><path d="M256 25.45a105.04 105.04 0 0 1-30.166 8.27c10.845-6.5 19.172-16.793 23.093-29.057a105.183 105.183 0 0 1-33.351 12.745C205.995 7.2 192.346.822 177.24.822c-29.006 0-52.523 23.516-52.523 52.52a52.75 52.75 0 0 0 1.36 11.97c-43.65-2.19-82.35-23.1-108.255-54.876-4.52 7.757-7.1 16.78-7.1 26.404 0 18.222 9.273 34.297 23.365 43.716a52.312 52.312 0 0 1-23.79-6.57l-.003.66c0 25.447 18.104 46.675 42.13 51.5a52.592 52.592 0 0 1-23.718.9c6.683 20.866 26.08 36.05 49.062 36.475-17.975 14.086-40.622 22.483-65.228 22.483A106.84 106.84 0 0 1 0 185.271c23.243 14.902 50.85 23.597 80.5 23.597 96.607 0 149.434-80.03 149.434-149.435 0-2.278-.05-4.543-.152-6.795A106.748 106.748 0 0 0 256 25.45" fill="#55acee"/></svg>